<svg xmlns="http://www.w3.org/2000/svg" xmlns:xlink="http://www.w3.org/1999/xlink" viewBox="0 0 50 50" fill="#7A8FA6">
  <path d="M7 9C4.243 9 2 11.243 2 14L2 36C2 38.757 4.243 41 7 41L28.050781 41C28.023781 40.669 28 40.338 28 40C28 39.662 28.023781 39.331 28.050781 39L7 39C5.346 39 4 37.654 4 36L4 14C4 12.346 5.346 11 7 11L43 11C44.654 11 46 12.346 46 14L46 29.617188C46.718 30.033188 47.386 30.522266 48 31.072266L48 14C48 11.243 45.757 9 43 9L7 9 z M 10 16C8.9069372 16 8 16.906937 8 18L8 21C8 22.093063 8.9069372 23 10 23L14 23C15.093063 23 16 22.093063 16 21L16 18C16 16.906937 15.093063 16 14 16L10 16 z M 10 18L14 18L14 21L10 21L10 18 z M 28 18 A 1.0001 1.0001 0 1 0 28 20L41 20 A 1.0001 1.0001 0 1 0 41 18L28 18 z M 9 28 A 1.0001 1.0001 0 1 0 9 30L14 30 A 1.0001 1.0001 0 1 0 14 28L9 28 z M 18 28 A 1.0001 1.0001 0 1 0 18 30L23 30 A 1.0001 1.0001 0 1 0 23 28L18 28 z M 27 28 A 1.0001 1.0001 0 1 0 27 30L32 30 A 1.0001 1.0001 0 1 0 32 28L27 28 z M 40 30C34.5 30 30 34.5 30 40C30 45.5 34.5 50 40 50C45.5 50 50 45.5 50 40C50 34.5 45.5 30 40 30 z M 40 32C44.4 32 48 35.6 48 40C48 44.4 44.4 48 40 48C35.6 48 32 44.4 32 40C32 35.6 35.6 32 40 32 z M 9 33 A 1.0001 1.0001 0 1 0 9 35L22 35 A 1.0001 1.0001 0 1 0 22 33L9 33 z M 40.800781 36L37 37.199219L37 38.599609L39 38.099609L39 44L41 44L41 36L40.800781 36 z" fill="#7A8FA6" />
</svg>