<svg xmlns="http://www.w3.org/2000/svg" xmlns:xlink="http://www.w3.org/1999/xlink" viewBox="0 0 64 64" fill="#7A8FA6">
  <path d="M28.070313 2C27.066406 2 26.132813 2.5 25.574219 3.335938L22.464844 8L11 8C9.347656 8 8 9.347656 8 11L8 17C8 18.652344 9.347656 20 11 20L11.097656 20L14.628906 53.523438C14.894531 56.078125 17.035156 58 19.601563 58L44.402344 58C46.964844 58 49.101563 56.078125 49.371094 53.523438L52.902344 20L53 20C54.652344 20 56 18.652344 56 17L56 11C56 9.347656 54.652344 8 53 8L41.535156 8L38.425781 3.335938C37.867188 2.5 36.933594 2 35.929688 2 Z M 28.070313 4L35.929688 4C36.265625 4 36.574219 4.167969 36.761719 4.445313L39.132813 8L24.867188 8L27.238281 4.445313C27.425781 4.167969 27.734375 4 28.070313 4 Z M 11 10L53 10C53.550781 10 54 10.449219 54 11L54 17C54 17.550781 53.550781 18 53 18L12 18C11.976563 18 11.960938 18.011719 11.9375 18.015625C11.917969 18.011719 11.898438 18 11.875 18L11 18C10.449219 18 10 17.550781 10 17L10 11C10 10.449219 10.449219 10 11 10 Z M 14 12C13.445313 12 13 12.449219 13 13L13 15C13 15.550781 13.445313 16 14 16C14.554688 16 15 15.550781 15 15L15 13C15 12.449219 14.554688 12 14 12 Z M 19 12C18.445313 12 18 12.449219 18 13L18 15C18 15.550781 18.445313 16 19 16C19.554688 16 20 15.550781 20 15L20 13C20 12.449219 19.554688 12 19 12 Z M 24 12C23.445313 12 23 12.449219 23 13L23 15C23 15.550781 23.445313 16 24 16C24.554688 16 25 15.550781 25 15L25 13C25 12.449219 24.554688 12 24 12 Z M 29 12C28.445313 12 28 12.449219 28 13L28 15C28 15.550781 28.445313 16 29 16C29.554688 16 30 15.550781 30 15L30 13C30 12.449219 29.554688 12 29 12 Z M 35 12C34.445313 12 34 12.449219 34 13L34 15C34 15.550781 34.445313 16 35 16C35.554688 16 36 15.550781 36 15L36 13C36 12.449219 35.554688 12 35 12 Z M 40 12C39.445313 12 39 12.449219 39 13L39 15C39 15.550781 39.445313 16 40 16C40.554688 16 41 15.550781 41 15L41 13C41 12.449219 40.554688 12 40 12 Z M 45 12C44.445313 12 44 12.449219 44 13L44 15C44 15.550781 44.445313 16 45 16C45.554688 16 46 15.550781 46 15L46 13C46 12.449219 45.554688 12 45 12 Z M 50 12C49.445313 12 49 12.449219 49 13L49 15C49 15.550781 49.445313 16 50 16C50.554688 16 51 15.550781 51 15L51 13C51 12.449219 50.554688 12 50 12 Z M 13.109375 20L50.890625 20L47.382813 53.3125C47.222656 54.847656 45.9375 56 44.398438 56L19.601563 56C18.0625 56 16.777344 54.847656 16.617188 53.3125 Z M 23.515625 25C23.261719 25 23.003906 25.097656 22.808594 25.292969C22.417969 25.683594 22.417969 26.316406 22.808594 26.707031L30.585938 34.484375L22.808594 42.265625C22.417969 42.65625 22.417969 43.285156 22.808594 43.675781C23.003906 43.871094 23.257813 43.96875 23.515625 43.96875C23.773438 43.96875 24.027344 43.871094 24.222656 43.675781L32 35.898438L39.777344 43.675781C39.972656 43.871094 40.226563 43.96875 40.484375 43.96875C40.742188 43.96875 40.996094 43.871094 41.191406 43.675781C41.582031 43.285156 41.582031 42.65625 41.191406 42.265625L33.414063 34.484375L41.191406 26.707031C41.582031 26.316406 41.582031 25.683594 41.191406 25.292969C40.800781 24.902344 40.167969 24.902344 39.777344 25.292969L32 33.070313L24.222656 25.292969C24.027344 25.097656 23.769531 25 23.515625 25 Z M 21 52C20.445313 52 20 52.449219 20 53C20 53.550781 20.445313 54 21 54L35 54C35.554688 54 36 53.550781 36 53C36 52.449219 35.554688 52 35 52 Z M 39 52C38.445313 52 38 52.449219 38 53C38 53.550781 38.445313 54 39 54L43 54C43.554688 54 44 53.550781 44 53C44 52.449219 43.554688 52 43 52Z" fill="#7A8FA6" />
</svg>