<svg xmlns="http://www.w3.org/2000/svg" xmlns:xlink="http://www.w3.org/1999/xlink" viewBox="0 0 50 50" fill="#7A8FA6">
  <path d="M11.4375 2C10.386719 2 9.503906 2.761719 9.28125 3.71875L9.28125 3.75C9.28125 3.75 3.40625 30.714844 2.25 36.09375L2.25 36.125C2.078125 36.984375 2.25 37.816406 2.75 38.34375C3.25 38.871094 3.882813 39 4.40625 39L12.96875 39C12.699219 40.21875 12.398438 41.558594 12.1875 42.53125C11.996094 43.410156 11.832031 44.125 11.71875 44.65625C11.605469 45.1875 11.5625 45.429688 11.53125 45.59375C11.449219 46.027344 11.46875 46.523438 11.8125 47.0625C12.15625 47.601563 12.910156 48 13.75 48L22.6875 48C23.761719 48 24.621094 47.25 24.84375 46.25C24.84375 46.25 25.378906 43.839844 25.90625 41.40625C26.167969 40.1875 26.417969 38.980469 26.625 38.03125C26.832031 37.082031 27 36.34375 27 36.34375C27.050781 36.128906 27.09375 36.035156 27.09375 36.03125C27.09375 36.027344 26.996094 36 27.28125 36L32.40625 36C39.789063 36 46 31.554688 47.65625 23.8125C48.589844 19.433594 47.472656 16.101563 45.34375 14C43.464844 12.144531 40.882813 11.261719 38.40625 11.0625C38.109375 8.089844 36.695313 5.769531 34.78125 4.28125C32.769531 2.71875 30.277344 2 27.90625 2 Z M 11.4375 4L27.90625 4C29.859375 4 31.957031 4.625 33.5625 5.875C35.027344 7.015625 36.011719 8.710938 36.3125 11L20.9375 11C20.675781 11 20.386719 10.96875 19.9375 11.09375C19.488281 11.21875 18.9375 11.742188 18.8125 12.28125L15.5625 26.90625L15.5625 26.96875L13.3125 37L4.40625 37C4.253906 37 4.179688 36.960938 4.1875 36.96875C4.195313 36.976563 4.15625 36.898438 4.21875 36.53125C4.222656 36.503906 4.210938 36.53125 4.21875 36.5C5.378906 31.109375 11.238281 4.238281 11.25 4.1875L11.25 4.15625C11.28125 4.054688 11.339844 4 11.4375 4 Z M 20.6875 13C20.773438 12.996094 20.769531 13 20.9375 13L36.40625 13C36.363281 13.652344 36.273438 14.34375 36.09375 15.1875C35.351563 18.664063 33.847656 21.039063 31.65625 22.625C29.464844 24.210938 26.519531 25 22.9375 25L18.53125 25C18.378906 25 18.191406 25.042969 18 25.0625 Z M 38.3125 13.15625C40.378906 13.339844 42.492188 14.011719 43.9375 15.4375C45.589844 17.070313 46.515625 19.523438 45.6875 23.40625C44.207031 30.320313 39.015625 34 32.40625 34L27.28125 34C26.535156 34 25.882813 34.332031 25.53125 34.78125C25.179688 35.230469 25.101563 35.707031 25.0625 35.875C25.015625 36.066406 24.894531 36.644531 24.6875 37.59375C24.480469 38.542969 24.199219 39.78125 23.9375 41C23.410156 43.433594 22.90625 45.8125 22.90625 45.8125C22.886719 45.894531 22.722656 46 22.6875 46L13.75 46C13.582031 46 13.523438 45.976563 13.5 45.96875C13.484375 46.046875 13.574219 45.625 13.6875 45.09375C13.800781 44.5625 13.964844 43.816406 14.15625 42.9375C14.535156 41.175781 15.03125 38.867188 15.53125 36.5625C16.53125 31.953125 17.53125 27.375 17.53125 27.375C17.578125 27.230469 17.613281 27.195313 17.78125 27.125C17.96875 27.046875 18.289063 27 18.53125 27L22.9375 27C26.816406 27 30.191406 26.144531 32.8125 24.25C35.433594 22.355469 37.238281 19.445313 38.0625 15.59375C38.25 14.714844 38.261719 13.945313 38.3125 13.15625Z" fill="#7A8FA6" />
</svg>