<svg xmlns="http://www.w3.org/2000/svg" xmlns:xlink="http://www.w3.org/1999/xlink" id="Layer_2" x="0" y="0" viewBox="0 0 64 64"><linearGradient id="SVGID_1_" x1="47" x2="47" y1="45.681" y2="50.745" gradientUnits="userSpaceOnUse"><stop offset="0" stop-color="#6dc7ff"/><stop offset="1" stop-color="#e6abff"/></linearGradient><path fill="url(#SVGID_1_)" d="M51,49c0,2.2-1.8,4-4,4s-4-1.8-4-4s1.8-4,4-4S51,46.8,51,49z"/><linearGradient id="SVGID_2_" x1="29" x2="29" y1="45.681" y2="50.745" gradientUnits="userSpaceOnUse"><stop offset="0" stop-color="#6dc7ff"/><stop offset="1" stop-color="#e6abff"/></linearGradient><path fill="url(#SVGID_2_)" d="M33,49c0,2.2-1.8,4-4,4s-4-1.8-4-4s1.8-4,4-4S33,46.8,33,49z"/><linearGradient id="SVGID_3_" x1="38" x2="38" y1="11.723" y2="51.852" gradientUnits="userSpaceOnUse"><stop offset="0" stop-color="#1a6dff"/><stop offset="1" stop-color="#c822ff"/></linearGradient><path fill="url(#SVGID_3_)" d="M47,44c-2.4,0-4.4,1.7-4.9,4h-8.2c-0.5-2.3-2.5-4-4.9-4c-2.8,0-5,2.2-5,5s2.2,5,5,5 c2.4,0,4.4-1.7,4.9-4h8.2c0.5,2.3,2.5,4,4.9,4c2.8,0,5-2.2,5-5S49.8,44,47,44z M29,52c-1.7,0-3-1.3-3-3s1.3-3,3-3s3,1.3,3,3 S30.7,52,29,52z M47,52c-1.7,0-3-1.3-3-3s1.3-3,3-3s3,1.3,3,3S48.7,52,47,52z"/><linearGradient id="SVGID_4_" x1="39" x2="39" y1="11.723" y2="51.852" gradientUnits="userSpaceOnUse"><stop offset="0" stop-color="#1a6dff"/><stop offset="1" stop-color="#c822ff"/></linearGradient><rect width="18" height="2" x="30" y="33" fill="url(#SVGID_4_)"/><linearGradient id="SVGID_5_" x1="32" x2="32" y1="11.723" y2="51.852" gradientUnits="userSpaceOnUse"><stop offset="0" stop-color="#1a6dff"/><stop offset="1" stop-color="#c822ff"/></linearGradient><path fill="url(#SVGID_5_)" d="M55,19h-6.3c0.2-0.7,0.3-1.5,0.3-2.3c0-3.1-2.5-5.7-5.5-5.7c-1.8,0-3.5,1-4.5,2.4C38,12,36.3,11,34.5,11 c-3,0-5.5,2.5-5.5,5.7c0,0.8,0.1,1.6,0.3,2.3h-7.5l-1.5-6.7C20,11,18.8,10,17.4,10H9c-1.7,0-3,1.3-3,3s1.3,3,3,3h4c1.7,0,3-1.3,3-3 v-1h1.4c0.5,0,0.9,0.3,1,0.8l5,22.3c0.5,2.3,2.5,3.9,4.9,3.9H50c2.2,0,4.2-1.5,4.8-3.6l3-10.6c0.1-0.4,0.2-0.9,0.2-1.4V22 C58,20.3,56.7,19,55,19z M14,13c0,0.6-0.4,1-1,1H9c-0.6,0-1-0.4-1-1s0.4-1,1-1h5V13z M34.5,13c1.7,0,3.2,1.3,3.5,3.1l0.1,0.9h1.8 l0.1-0.9c0.2-1.8,1.7-3.1,3.5-3.1c1.9,0,3.5,1.6,3.5,3.7c0,5.7-6.3,9.4-8,10.2c-1.7-0.9-8-4.5-8-10.2C31,14.6,32.6,13,34.5,13z M56,23.4c0,0.3,0,0.6-0.1,0.8l-3,10.6C52.5,36.1,51.3,37,50,37H28.2c-1.4,0-2.6-1-2.9-2.3l-3-13.7H30c2.4,5.1,8.3,7.8,8.6,7.9 l0.4,0.2l0.4-0.2c0.3-0.1,6.2-2.8,8.6-7.9h7c0.6,0,1,0.4,1,1V23.4z"/></svg>